<mxfile host="app.diagrams.net" modified="2023-11-30T10:48:33.529Z" agent="Mozilla/5.0 (Windows NT 10.0; Win64; x64) AppleWebKit/537.36 (KHTML, like Gecko) Chrome/119.0.0.0 Safari/537.36" etag="O7VsitcLYM0IydbVDh9u" version="22.1.5" type="github">
  <diagram name="Page-1" id="5ImHIXw9c1unncVtrP42">
    <mxGraphModel dx="1292" dy="649" grid="1" gridSize="10" guides="1" tooltips="1" connect="1" arrows="1" fold="1" page="1" pageScale="1" pageWidth="850" pageHeight="1100" math="0" shadow="0">
      <root>
        <mxCell id="0" />
        <mxCell id="1" parent="0" />
        <mxCell id="Hdnz7eUqurhcWSyTae6E-5" style="edgeStyle=orthogonalEdgeStyle;rounded=0;orthogonalLoop=1;jettySize=auto;html=1;entryX=0;entryY=0.25;entryDx=0;entryDy=0;" edge="1" parent="1" source="2Kv4cWOwHbYVwLnxXEak-2" target="2Kv4cWOwHbYVwLnxXEak-10">
          <mxGeometry relative="1" as="geometry" />
        </mxCell>
        <mxCell id="2Kv4cWOwHbYVwLnxXEak-2" value="FEDNET" style="html=1;whiteSpace=wrap;strokeColor=none;fillColor=#0079D6;labelPosition=center;verticalLabelPosition=middle;verticalAlign=top;align=center;fontSize=12;outlineConnect=0;spacingTop=-6;fontColor=#FFFFFF;sketch=0;shape=mxgraph.sitemap.services;" parent="1" vertex="1">
          <mxGeometry x="29.5" y="110" width="120" height="70" as="geometry" />
        </mxCell>
        <mxCell id="2Kv4cWOwHbYVwLnxXEak-10" value="" style="swimlane;startSize=0;" parent="1" vertex="1">
          <mxGeometry x="258" y="120" width="160" height="280" as="geometry" />
        </mxCell>
        <mxCell id="2Kv4cWOwHbYVwLnxXEak-6" value="" style="image;aspect=fixed;html=1;points=[];align=center;fontSize=12;image=img/lib/azure2/other/API_Proxy.svg;" parent="2Kv4cWOwHbYVwLnxXEak-10" vertex="1">
          <mxGeometry x="37" y="70" width="68" height="38" as="geometry" />
        </mxCell>
        <mxCell id="2Kv4cWOwHbYVwLnxXEak-7" value="" style="image;aspect=fixed;html=1;points=[];align=center;fontSize=12;image=img/lib/azure2/other/API_Proxy.svg;" parent="2Kv4cWOwHbYVwLnxXEak-10" vertex="1">
          <mxGeometry x="41" y="210" width="68" height="38" as="geometry" />
        </mxCell>
        <mxCell id="2Kv4cWOwHbYVwLnxXEak-13" style="edgeStyle=orthogonalEdgeStyle;rounded=0;orthogonalLoop=1;jettySize=auto;html=1;entryX=0.441;entryY=0.158;entryDx=0;entryDy=0;entryPerimeter=0;" parent="2Kv4cWOwHbYVwLnxXEak-10" source="2Kv4cWOwHbYVwLnxXEak-6" target="2Kv4cWOwHbYVwLnxXEak-7" edge="1">
          <mxGeometry relative="1" as="geometry" />
        </mxCell>
        <mxCell id="2Kv4cWOwHbYVwLnxXEak-24" value="&lt;b&gt;&lt;font style=&quot;font-size: 14px;&quot;&gt;ADConnect&lt;/font&gt;&lt;/b&gt;" style="text;html=1;strokeColor=none;fillColor=none;align=center;verticalAlign=middle;whiteSpace=wrap;rounded=0;" parent="2Kv4cWOwHbYVwLnxXEak-10" vertex="1">
          <mxGeometry x="20" y="20" width="120" height="30" as="geometry" />
        </mxCell>
        <mxCell id="2Kv4cWOwHbYVwLnxXEak-26" value="ESB" style="text;html=1;strokeColor=none;fillColor=none;align=center;verticalAlign=middle;whiteSpace=wrap;rounded=0;" parent="2Kv4cWOwHbYVwLnxXEak-10" vertex="1">
          <mxGeometry x="95" y="240" width="60" height="30" as="geometry" />
        </mxCell>
        <mxCell id="2Kv4cWOwHbYVwLnxXEak-15" value="" style="swimlane;startSize=0;" parent="1" vertex="1">
          <mxGeometry x="500" y="170" width="158" height="170" as="geometry" />
        </mxCell>
        <mxCell id="2Kv4cWOwHbYVwLnxXEak-16" value="" style="image;aspect=fixed;html=1;points=[];align=center;fontSize=12;image=img/lib/azure2/other/API_Proxy.svg;" parent="2Kv4cWOwHbYVwLnxXEak-15" vertex="1">
          <mxGeometry x="45" y="80" width="68" height="38" as="geometry" />
        </mxCell>
        <mxCell id="2Kv4cWOwHbYVwLnxXEak-25" value="&lt;b&gt;&lt;font style=&quot;font-size: 14px;&quot;&gt;GovTalent G2G Gateway&lt;/font&gt;&lt;/b&gt;" style="text;html=1;strokeColor=none;fillColor=none;align=center;verticalAlign=middle;whiteSpace=wrap;rounded=0;" parent="2Kv4cWOwHbYVwLnxXEak-15" vertex="1">
          <mxGeometry x="18" y="10" width="132" height="30" as="geometry" />
        </mxCell>
        <mxCell id="2Kv4cWOwHbYVwLnxXEak-44" value="esb-prod.hra.gov.ae" style="text;html=1;strokeColor=none;fillColor=none;align=center;verticalAlign=middle;whiteSpace=wrap;rounded=0;" parent="2Kv4cWOwHbYVwLnxXEak-15" vertex="1">
          <mxGeometry x="20" y="130" width="110" height="30" as="geometry" />
        </mxCell>
        <mxCell id="2Kv4cWOwHbYVwLnxXEak-58" style="edgeStyle=orthogonalEdgeStyle;rounded=0;orthogonalLoop=1;jettySize=auto;html=1;entryX=1;entryY=0.5;entryDx=0;entryDy=0;" parent="1" source="2Kv4cWOwHbYVwLnxXEak-20" target="2Kv4cWOwHbYVwLnxXEak-15" edge="1">
          <mxGeometry relative="1" as="geometry">
            <Array as="points">
              <mxPoint x="700" y="295" />
              <mxPoint x="700" y="255" />
            </Array>
          </mxGeometry>
        </mxCell>
        <mxCell id="2Kv4cWOwHbYVwLnxXEak-20" value="" style="outlineConnect=0;dashed=0;verticalLabelPosition=bottom;verticalAlign=top;align=center;html=1;shape=mxgraph.aws3.api_gateway;fillColor=#D9A741;gradientColor=none;" parent="1" vertex="1">
          <mxGeometry x="770" y="268" width="40" height="53" as="geometry" />
        </mxCell>
        <mxCell id="2Kv4cWOwHbYVwLnxXEak-21" style="edgeStyle=orthogonalEdgeStyle;rounded=0;orthogonalLoop=1;jettySize=auto;html=1;entryX=0.015;entryY=0.395;entryDx=0;entryDy=0;entryPerimeter=0;" parent="1" target="2Kv4cWOwHbYVwLnxXEak-6" edge="1">
          <mxGeometry relative="1" as="geometry">
            <mxPoint x="150" y="270" as="sourcePoint" />
          </mxGeometry>
        </mxCell>
        <mxCell id="2Kv4cWOwHbYVwLnxXEak-22" style="edgeStyle=orthogonalEdgeStyle;rounded=0;orthogonalLoop=1;jettySize=auto;html=1;entryX=0;entryY=0.474;entryDx=0;entryDy=0;entryPerimeter=0;" parent="1" source="2Kv4cWOwHbYVwLnxXEak-7" target="2Kv4cWOwHbYVwLnxXEak-16" edge="1">
          <mxGeometry relative="1" as="geometry" />
        </mxCell>
        <mxCell id="2Kv4cWOwHbYVwLnxXEak-27" value="API Gateway" style="text;html=1;strokeColor=none;fillColor=none;align=center;verticalAlign=middle;whiteSpace=wrap;rounded=0;" parent="1" vertex="1">
          <mxGeometry x="348" y="238" width="60" height="30" as="geometry" />
        </mxCell>
        <mxCell id="2Kv4cWOwHbYVwLnxXEak-36" value="" style="swimlane;startSize=0;" parent="1" vertex="1">
          <mxGeometry x="520" y="559" width="158" height="170" as="geometry" />
        </mxCell>
        <mxCell id="2Kv4cWOwHbYVwLnxXEak-37" value="" style="image;aspect=fixed;html=1;points=[];align=center;fontSize=12;image=img/lib/azure2/other/API_Proxy.svg;" parent="2Kv4cWOwHbYVwLnxXEak-36" vertex="1">
          <mxGeometry x="45" y="80" width="68" height="38" as="geometry" />
        </mxCell>
        <mxCell id="2Kv4cWOwHbYVwLnxXEak-38" value="&lt;b&gt;&lt;font style=&quot;font-size: 14px;&quot;&gt;GovTalent Public API Gateway&lt;/font&gt;&lt;/b&gt;" style="text;html=1;strokeColor=none;fillColor=none;align=center;verticalAlign=middle;whiteSpace=wrap;rounded=0;" parent="2Kv4cWOwHbYVwLnxXEak-36" vertex="1">
          <mxGeometry x="18" y="10" width="132" height="30" as="geometry" />
        </mxCell>
        <mxCell id="2Kv4cWOwHbYVwLnxXEak-45" value="services.hra.gov.ae" style="text;html=1;strokeColor=none;fillColor=none;align=center;verticalAlign=middle;whiteSpace=wrap;rounded=0;" parent="2Kv4cWOwHbYVwLnxXEak-36" vertex="1">
          <mxGeometry x="40" y="130" width="110" height="30" as="geometry" />
        </mxCell>
        <mxCell id="2Kv4cWOwHbYVwLnxXEak-57" style="edgeStyle=orthogonalEdgeStyle;rounded=0;orthogonalLoop=1;jettySize=auto;html=1;entryX=1;entryY=0.5;entryDx=0;entryDy=0;" parent="1" source="2Kv4cWOwHbYVwLnxXEak-49" target="2Kv4cWOwHbYVwLnxXEak-15" edge="1">
          <mxGeometry relative="1" as="geometry">
            <Array as="points">
              <mxPoint x="700" y="207" />
              <mxPoint x="700" y="255" />
            </Array>
          </mxGeometry>
        </mxCell>
        <mxCell id="2Kv4cWOwHbYVwLnxXEak-49" value="" style="outlineConnect=0;dashed=0;verticalLabelPosition=bottom;verticalAlign=top;align=center;html=1;shape=mxgraph.aws3.api_gateway;fillColor=#D9A741;gradientColor=none;" parent="1" vertex="1">
          <mxGeometry x="760" y="180" width="40" height="53" as="geometry" />
        </mxCell>
        <mxCell id="2Kv4cWOwHbYVwLnxXEak-59" style="edgeStyle=orthogonalEdgeStyle;rounded=0;orthogonalLoop=1;jettySize=auto;html=1;entryX=1;entryY=0.5;entryDx=0;entryDy=0;" parent="1" source="2Kv4cWOwHbYVwLnxXEak-50" target="2Kv4cWOwHbYVwLnxXEak-15" edge="1">
          <mxGeometry relative="1" as="geometry">
            <Array as="points">
              <mxPoint x="700" y="397" />
              <mxPoint x="700" y="255" />
            </Array>
          </mxGeometry>
        </mxCell>
        <mxCell id="2Kv4cWOwHbYVwLnxXEak-61" style="edgeStyle=orthogonalEdgeStyle;rounded=0;orthogonalLoop=1;jettySize=auto;html=1;entryX=1;entryY=0.5;entryDx=0;entryDy=0;" parent="1" source="2Kv4cWOwHbYVwLnxXEak-50" target="2Kv4cWOwHbYVwLnxXEak-36" edge="1">
          <mxGeometry relative="1" as="geometry">
            <Array as="points">
              <mxPoint x="700" y="397" />
              <mxPoint x="700" y="645" />
            </Array>
          </mxGeometry>
        </mxCell>
        <mxCell id="2Kv4cWOwHbYVwLnxXEak-50" value="" style="outlineConnect=0;dashed=0;verticalLabelPosition=bottom;verticalAlign=top;align=center;html=1;shape=mxgraph.aws3.api_gateway;fillColor=#D9A741;gradientColor=none;" parent="1" vertex="1">
          <mxGeometry x="770" y="370" width="40" height="53" as="geometry" />
        </mxCell>
        <mxCell id="2Kv4cWOwHbYVwLnxXEak-63" value="" style="image;aspect=fixed;html=1;points=[];align=center;fontSize=12;image=img/lib/azure2/app_services/API_Management_Services.svg;" parent="1" vertex="1">
          <mxGeometry x="56.5" y="581" width="65" height="60" as="geometry" />
        </mxCell>
        <mxCell id="2Kv4cWOwHbYVwLnxXEak-64" style="edgeStyle=orthogonalEdgeStyle;rounded=0;orthogonalLoop=1;jettySize=auto;html=1;entryX=0.013;entryY=0.306;entryDx=0;entryDy=0;entryPerimeter=0;" parent="1" source="2Kv4cWOwHbYVwLnxXEak-63" target="2Kv4cWOwHbYVwLnxXEak-36" edge="1">
          <mxGeometry relative="1" as="geometry" />
        </mxCell>
        <mxCell id="2Kv4cWOwHbYVwLnxXEak-65" value="&lt;b&gt;ADGE G2G Consumer/Provider in ADNET&lt;/b&gt;" style="text;html=1;strokeColor=none;fillColor=none;align=center;verticalAlign=middle;whiteSpace=wrap;rounded=0;" parent="1" vertex="1">
          <mxGeometry x="24" y="321" width="131" height="30" as="geometry" />
        </mxCell>
        <mxCell id="2Kv4cWOwHbYVwLnxXEak-66" value="&lt;b&gt;Public Internet Application / Services&lt;/b&gt;" style="text;html=1;strokeColor=none;fillColor=none;align=center;verticalAlign=middle;whiteSpace=wrap;rounded=0;" parent="1" vertex="1">
          <mxGeometry x="40" y="670" width="150" height="30" as="geometry" />
        </mxCell>
        <mxCell id="2Kv4cWOwHbYVwLnxXEak-67" value="&lt;b&gt;&lt;font style=&quot;font-size: 14px;&quot;&gt;GovTalent Microservices / APIs&lt;/font&gt;&lt;/b&gt;" style="text;html=1;strokeColor=none;fillColor=none;align=center;verticalAlign=middle;whiteSpace=wrap;rounded=0;" parent="1" vertex="1">
          <mxGeometry x="710" y="120" width="120" height="50" as="geometry" />
        </mxCell>
        <mxCell id="Hdnz7eUqurhcWSyTae6E-2" value="ADGE&amp;nbsp;" style="html=1;whiteSpace=wrap;strokeColor=none;fillColor=#0079D6;labelPosition=center;verticalLabelPosition=middle;verticalAlign=top;align=center;fontSize=12;outlineConnect=0;spacingTop=-6;fontColor=#FFFFFF;sketch=0;shape=mxgraph.sitemap.services;" vertex="1" parent="1">
          <mxGeometry x="40" y="243.5" width="120" height="70" as="geometry" />
        </mxCell>
      </root>
    </mxGraphModel>
  </diagram>
</mxfile>
